<svg width="20" height="20" viewBox="0 0 20 20" fill="none" xmlns="http://www.w3.org/2000/svg">
<path d="M17.8666 9.20832L10.2083 16.8667C9.27011 17.8049 7.99763 18.3319 6.67081 18.3319C5.34399 18.3319 4.07151 17.8049 3.13331 16.8667C2.19511 15.9284 1.66803 14.656 1.66803 13.3292C1.66803 12.0023 2.19511 10.7299 3.13331 9.79165L10.7916 2.13332C11.4171 1.50785 12.2654 1.15646 13.15 1.15646C14.0345 1.15646 14.8828 1.50785 15.5083 2.13332C16.1338 2.75879 16.4852 3.6071 16.4852 4.49165C16.4852 5.3762 16.1338 6.22452 15.5083 6.84998L7.84164 14.5083C7.52891 14.8211 7.10475 14.9967 6.66248 14.9967C6.2202 14.9967 5.79604 14.8211 5.48331 14.5083C5.17058 14.1956 4.99488 13.7714 4.99488 13.3292C4.99488 12.8869 5.17058 12.4627 5.48331 12.15L12.5583 5.08332" stroke="#444444" stroke-width="2" stroke-linecap="round" stroke-linejoin="round"/>
</svg>
