<svg width="20" height="21" viewBox="0 0 20 21" fill="none" xmlns="http://www.w3.org/2000/svg">
<path fill-rule="evenodd" clip-rule="evenodd" d="M9.39721 12.6638C8.00479 14.0957 5.74723 14.0957 4.35481 12.6638C2.96238 11.2319 2.96238 8.91027 4.35481 7.47834C5.74723 6.04642 8.00479 6.04642 9.39721 7.47834C10.7896 8.91027 10.7896 11.2319 9.39721 12.6638ZM9.82544 14.0468C7.91929 15.5461 5.18138 15.3994 3.43801 13.6066C1.53925 11.654 1.53925 8.48816 3.43801 6.53553C5.33676 4.58291 8.41525 4.58291 10.314 6.53553C12.0573 8.32828 12.2 11.1437 10.7422 13.1039L14.2105 16.6706L13.2937 17.6134L9.82544 14.0468Z" fill="#999999"/>
</svg>
