<svg width="20" height="20" viewBox="0 0 20 20" fill="none" xmlns="http://www.w3.org/2000/svg">
<path d="M17.8666 9.20835L10.2083 16.8667C9.27011 17.8049 7.99763 18.332 6.67081 18.332C5.34399 18.332 4.07151 17.8049 3.13331 16.8667C2.19511 15.9285 1.66803 14.656 1.66803 13.3292C1.66803 12.0024 2.19511 10.7299 3.13331 9.79168L10.7916 2.13335C11.4171 1.50788 12.2654 1.15649 13.15 1.15649C14.0345 1.15649 14.8828 1.50788 15.5083 2.13335C16.1338 2.75882 16.4852 3.60713 16.4852 4.49168C16.4852 5.37623 16.1338 6.22455 15.5083 6.85002L7.84164 14.5083C7.52891 14.8211 7.10475 14.9968 6.66248 14.9968C6.2202 14.9968 5.79604 14.8211 5.48331 14.5083C5.17058 14.1956 4.99488 13.7715 4.99488 13.3292C4.99488 12.8869 5.17058 12.4627 5.48331 12.15L12.5583 5.08335" stroke="#999999" stroke-width="2" stroke-linecap="round" stroke-linejoin="round"/>
</svg>
